<?xml version="1.0" encoding="UTF-8" standalone="no"?><!DOCTYPE svg PUBLIC "-//W3C//DTD SVG 1.1//EN" "http://www.w3.org/Graphics/SVG/1.1/DTD/svg11.dtd"><svg width="100%" height="100%" viewBox="0 0 1920 400" version="1.1" xmlns="http://www.w3.org/2000/svg" xmlns:xlink="http://www.w3.org/1999/xlink" xml:space="preserve" xmlns:serif="http://www.serif.com/" style="fill-rule:evenodd;clip-rule:evenodd;stroke-linejoin:round;stroke-miterlimit:2;"><g transform="matrix(0.941259,0,0,0.941259,-220.674129,-396.766354)"><g transform="matrix(324.356869,0,0,324.356869,244,752)"><path d="M0.057,-0l0,-0.728l0.268,0l0.093,0.283c0.005,0.017 0.011,0.04 0.018,0.069c0.007,0.028 0.013,0.059 0.02,0.091c0.007,0.033 0.013,0.064 0.019,0.094c0.006,0.03 0.01,0.056 0.014,0.078l-0.033,0c0.004,-0.021 0.008,-0.047 0.014,-0.078c0.006,-0.03 0.012,-0.062 0.019,-0.094c0.007,-0.033 0.013,-0.063 0.02,-0.092c0.007,-0.028 0.013,-0.051 0.018,-0.069l0.091,-0.283l0.269,0l0,0.728l-0.173,-0l0,-0.313c0,-0.016 0,-0.037 0.001,-0.063c0.001,-0.026 0.001,-0.053 0.002,-0.083c0.001,-0.03 0.002,-0.06 0.002,-0.091c0.001,-0.03 0.001,-0.059 0.001,-0.085l0.01,0c-0.006,0.029 -0.013,0.059 -0.02,0.09c-0.008,0.031 -0.015,0.061 -0.023,0.09c-0.008,0.029 -0.015,0.056 -0.022,0.081c-0.007,0.024 -0.013,0.045 -0.018,0.061l-0.103,0.313l-0.144,-0l-0.105,-0.313c-0.005,-0.016 -0.011,-0.036 -0.018,-0.061c-0.007,-0.024 -0.015,-0.051 -0.022,-0.08c-0.008,-0.029 -0.016,-0.059 -0.023,-0.09c-0.008,-0.031 -0.015,-0.061 -0.022,-0.09l0.013,0c0,0.026 0.001,0.054 0.001,0.084c0.001,0.03 0.002,0.061 0.002,0.091c0.001,0.03 0.002,0.058 0.002,0.084c0.001,0.026 0.001,0.047 0.001,0.063l0,0.313l-0.173,-0Z" style="fill-rule:nonzero;"/></g><g transform="matrix(324.356869,0,0,324.356869,549.997931,752)"><path d="M0.384,0.01c-0.065,0 -0.124,-0.014 -0.176,-0.043c-0.052,-0.029 -0.093,-0.071 -0.123,-0.127c-0.03,-0.056 -0.045,-0.123 -0.045,-0.203c0,-0.08 0.015,-0.148 0.046,-0.204c0.03,-0.056 0.072,-0.098 0.124,-0.127c0.052,-0.029 0.11,-0.043 0.175,-0.043c0.043,0 0.083,0.006 0.12,0.018c0.037,0.012 0.07,0.029 0.098,0.052c0.028,0.023 0.051,0.051 0.069,0.084c0.018,0.033 0.029,0.071 0.034,0.113l-0.174,0c-0.003,-0.018 -0.008,-0.034 -0.016,-0.048c-0.008,-0.014 -0.018,-0.026 -0.03,-0.036c-0.012,-0.01 -0.027,-0.018 -0.043,-0.023c-0.016,-0.005 -0.034,-0.008 -0.054,-0.008c-0.035,0 -0.066,0.009 -0.092,0.026c-0.026,0.018 -0.046,0.043 -0.06,0.076c-0.014,0.033 -0.021,0.073 -0.021,0.12c0,0.048 0.007,0.089 0.021,0.122c0.014,0.033 0.034,0.058 0.06,0.075c0.026,0.017 0.056,0.025 0.091,0.025c0.02,0 0.037,-0.003 0.054,-0.008c0.016,-0.005 0.03,-0.013 0.043,-0.023c0.012,-0.01 0.023,-0.022 0.031,-0.036c0.008,-0.014 0.014,-0.03 0.017,-0.048l0.174,0c-0.003,0.032 -0.013,0.064 -0.028,0.096c-0.015,0.032 -0.037,0.06 -0.064,0.086c-0.027,0.026 -0.06,0.046 -0.098,0.062c-0.038,0.015 -0.082,0.023 -0.132,0.023Z" style="fill-rule:nonzero;"/></g><g transform="matrix(314.275271,0,0,314.275271,856.815015,752)"><path d="M0.324,-0l-0.194,-0l0,-0.147l0.186,0c0.042,0 0.077,-0.007 0.106,-0.021c0.029,-0.014 0.051,-0.037 0.065,-0.069c0.015,-0.032 0.022,-0.074 0.022,-0.126c0,-0.053 -0.007,-0.095 -0.022,-0.126c-0.015,-0.032 -0.037,-0.055 -0.066,-0.069c-0.029,-0.014 -0.065,-0.021 -0.107,-0.021l-0.187,0l0,-0.147l0.197,0c0.074,0 0.138,0.015 0.191,0.044c0.053,0.029 0.095,0.071 0.124,0.125c0.029,0.054 0.043,0.119 0.043,0.195c0,0.076 -0.014,0.141 -0.043,0.195c-0.029,0.054 -0.07,0.096 -0.124,0.125c-0.053,0.029 -0.117,0.044 -0.191,0.044Zm-0.095,-0.728l0,0.728l-0.172,-0l0,-0.728l0.172,0Z" style="fill-rule:nonzero;"/></g><g transform="matrix(314.275271,0,0,314.275271,1083.854348,752)"><path d="M0.057,-0l0,-0.728l0.505,0l0,0.141l-0.333,0l0,0.15l0.306,0l0,0.138l-0.306,0l0,0.158l0.332,0l0,0.141l-0.505,-0Z" style="fill-rule:nonzero;"/></g><g transform="matrix(314.275271,0,0,314.275271,1275.556161,752)"><path d="M0.338,0.01c-0.061,0 -0.113,-0.009 -0.158,-0.027c-0.045,-0.018 -0.08,-0.046 -0.105,-0.083c-0.025,-0.037 -0.038,-0.084 -0.039,-0.14l0.165,0c0.002,0.023 0.008,0.043 0.019,0.059c0.011,0.016 0.027,0.028 0.047,0.036c0.02,0.008 0.043,0.012 0.069,0.012c0.024,0 0.045,-0.003 0.062,-0.01c0.017,-0.007 0.03,-0.016 0.04,-0.027c0.009,-0.012 0.014,-0.025 0.014,-0.041c0,-0.014 -0.004,-0.026 -0.013,-0.036c-0.008,-0.01 -0.021,-0.018 -0.039,-0.026c-0.017,-0.007 -0.039,-0.014 -0.066,-0.02l-0.077,-0.018c-0.063,-0.014 -0.112,-0.038 -0.148,-0.07c-0.036,-0.033 -0.054,-0.076 -0.054,-0.131c0,-0.045 0.012,-0.084 0.037,-0.118c0.024,-0.034 0.058,-0.06 0.1,-0.079c0.043,-0.019 0.091,-0.028 0.146,-0.028c0.056,0 0.105,0.01 0.146,0.029c0.041,0.019 0.073,0.046 0.096,0.08c0.023,0.034 0.034,0.074 0.035,0.119l-0.166,0c-0.002,-0.027 -0.013,-0.047 -0.032,-0.062c-0.019,-0.015 -0.046,-0.022 -0.081,-0.022c-0.023,0 -0.042,0.003 -0.058,0.009c-0.016,0.006 -0.027,0.014 -0.035,0.025c-0.008,0.011 -0.012,0.023 -0.012,0.036c0,0.015 0.004,0.027 0.013,0.038c0.009,0.01 0.021,0.019 0.038,0.026c0.016,0.007 0.035,0.013 0.057,0.018l0.063,0.014c0.035,0.008 0.066,0.018 0.094,0.031c0.028,0.013 0.051,0.028 0.07,0.046c0.019,0.018 0.034,0.038 0.044,0.062c0.01,0.023 0.015,0.05 0.015,0.079c0,0.046 -0.011,0.085 -0.034,0.118c-0.023,0.033 -0.056,0.058 -0.099,0.076c-0.043,0.018 -0.094,0.026 -0.155,0.026Z" style="fill-rule:nonzero;"/></g><g transform="matrix(314.275271,0,0,314.275271,1483.02702,752)"><rect x="0.057" y="-0.728" width="0.172" height="0.728" style="fill-rule:nonzero;"/></g><g transform="matrix(314.275271,0,0,314.275271,1572.791963,752)"><path d="M0.389,0.01c-0.069,0 -0.13,-0.015 -0.182,-0.045c-0.052,-0.03 -0.093,-0.073 -0.123,-0.129c-0.029,-0.056 -0.044,-0.122 -0.044,-0.198c0,-0.079 0.015,-0.147 0.046,-0.203c0.031,-0.056 0.073,-0.098 0.125,-0.128c0.052,-0.029 0.111,-0.044 0.176,-0.044c0.042,0 0.081,0.006 0.117,0.018c0.036,0.012 0.068,0.029 0.096,0.051c0.028,0.022 0.051,0.048 0.068,0.078c0.017,0.03 0.028,0.063 0.033,0.099l-0.174,0c-0.004,-0.015 -0.01,-0.028 -0.018,-0.04c-0.008,-0.012 -0.018,-0.022 -0.03,-0.03c-0.012,-0.008 -0.025,-0.015 -0.04,-0.019c-0.015,-0.004 -0.031,-0.006 -0.049,-0.006c-0.035,0 -0.066,0.009 -0.092,0.026c-0.026,0.017 -0.046,0.042 -0.061,0.075c-0.014,0.033 -0.021,0.073 -0.021,0.12c0,0.047 0.007,0.088 0.021,0.121c0.014,0.033 0.034,0.059 0.06,0.076c0.026,0.018 0.057,0.026 0.094,0.026c0.033,0 0.06,-0.005 0.083,-0.016c0.023,-0.011 0.04,-0.026 0.052,-0.046c0.012,-0.02 0.018,-0.043 0.018,-0.07l0.033,0.004l-0.178,0l0,-0.126l0.312,0l0,0.096c0,0.065 -0.014,0.121 -0.041,0.167c-0.027,0.046 -0.065,0.082 -0.114,0.107c-0.048,0.025 -0.103,0.037 -0.166,0.037Z" style="fill-rule:nonzero;"/></g><g transform="matrix(314.275271,0,0,314.275271,1809.253439,752)"><path d="M0.057,-0l0,-0.728l0.19,0l0.203,0.329c0.013,0.022 0.026,0.044 0.039,0.068c0.013,0.023 0.025,0.049 0.037,0.078c0.012,0.028 0.025,0.061 0.037,0.098l-0.016,0c-0.002,-0.027 -0.004,-0.056 -0.006,-0.089c-0.002,-0.032 -0.004,-0.064 -0.006,-0.095c-0.002,-0.031 -0.002,-0.057 -0.002,-0.078l0,-0.31l0.177,0l0,0.728l-0.19,-0l-0.186,-0.301c-0.017,-0.028 -0.032,-0.054 -0.045,-0.079c-0.013,-0.025 -0.027,-0.052 -0.04,-0.081c-0.014,-0.029 -0.029,-0.063 -0.048,-0.102l0.02,0c0.002,0.035 0.005,0.069 0.007,0.102c0.002,0.033 0.004,0.063 0.005,0.091c0.001,0.027 0.002,0.05 0.002,0.069l0,0.301l-0.177,-0Z" style="fill-rule:nonzero;"/></g><g transform="matrix(314.275271,0,0,314.275271,2049.882768,752)"><path d="M0.338,0.01c-0.061,0 -0.113,-0.009 -0.158,-0.027c-0.045,-0.018 -0.08,-0.046 -0.105,-0.083c-0.025,-0.037 -0.038,-0.084 -0.039,-0.14l0.165,0c0.002,0.023 0.008,0.043 0.019,0.059c0.011,0.016 0.027,0.028 0.047,0.036c0.02,0.008 0.043,0.012 0.069,0.012c0.024,0 0.045,-0.003 0.062,-0.01c0.017,-0.007 0.03,-0.016 0.04,-0.027c0.009,-0.012 0.014,-0.025 0.014,-0.041c0,-0.014 -0.004,-0.026 -0.013,-0.036c-0.008,-0.01 -0.021,-0.018 -0.039,-0.026c-0.017,-0.007 -0.039,-0.014 -0.066,-0.02l-0.077,-0.018c-0.063,-0.014 -0.112,-0.038 -0.148,-0.07c-0.036,-0.033 -0.054,-0.076 -0.054,-0.131c0,-0.045 0.012,-0.084 0.037,-0.118c0.024,-0.034 0.058,-0.06 0.1,-0.079c0.043,-0.019 0.091,-0.028 0.146,-0.028c0.056,0 0.105,0.01 0.146,0.029c0.041,0.019 0.073,0.046 0.096,0.08c0.023,0.034 0.034,0.074 0.035,0.119l-0.166,0c-0.002,-0.027 -0.013,-0.047 -0.032,-0.062c-0.019,-0.015 -0.046,-0.022 -0.081,-0.022c-0.023,0 -0.042,0.003 -0.058,0.009c-0.016,0.006 -0.027,0.014 -0.035,0.025c-0.008,0.011 -0.012,0.023 -0.012,0.036c0,0.015 0.004,0.027 0.013,0.038c0.009,0.01 0.021,0.019 0.038,0.026c0.016,0.007 0.035,0.013 0.057,0.018l0.063,0.014c0.035,0.008 0.066,0.018 0.094,0.031c0.028,0.013 0.051,0.028 0.07,0.046c0.019,0.018 0.034,0.038 0.044,0.062c0.01,0.023 0.015,0.05 0.015,0.079c0,0.046 -0.011,0.085 -0.034,0.118c-0.023,0.033 -0.056,0.058 -0.099,0.076c-0.043,0.018 -0.094,0.026 -0.155,0.026Z" style="fill-rule:nonzero;"/></g><g transform="matrix(314.275271,0,0,314.275271,2257.353627,752)"></g></g></svg>