<?xml version="1.0" encoding="UTF-8" standalone="no"?>
<!DOCTYPE svg PUBLIC "-//W3C//DTD SVG 1.1//EN" "http://www.w3.org/Graphics/SVG/1.1/DTD/svg11.dtd">
<svg width="100%" height="100%" viewBox="0 0 2000 2000" version="1.1" xmlns="http://www.w3.org/2000/svg" xmlns:xlink="http://www.w3.org/1999/xlink" xml:space="preserve" xmlns:serif="http://www.serif.com/" style="fill-rule:evenodd;clip-rule:evenodd;stroke-linejoin:round;stroke-miterlimit:2;">
    <g transform="matrix(13.060007,0,0,13.060007,221,129)">
        <path d="M116.085,51.561C118.943,42.983 117.96,33.588 113.39,25.787C106.509,13.829 92.697,7.678 79.206,10.563C73.206,3.796 64.579,-0.053 55.535,0.001C41.736,-0.03 29.497,8.858 25.258,21.99C16.399,23.807 8.755,29.356 4.282,37.214C-2.635,49.152 -1.057,64.19 8.188,74.432C5.341,83.003 6.323,92.384 10.883,100.18C17.758,112.161 31.586,118.328 45.094,115.436C51.088,122.195 59.704,126.043 68.737,125.998C82.537,126.029 94.776,117.141 99.015,104.009C107.871,102.191 115.514,96.643 119.985,88.785C126.921,76.85 125.344,61.8 116.085,51.561ZM68.737,117.781C63.214,117.786 57.865,115.846 53.629,112.303C53.815,112.199 54.177,112.018 54.385,111.881L79.475,97.397C80.756,96.669 81.544,95.305 81.534,93.83L81.534,58.453L92.134,64.572C92.251,64.627 92.33,64.739 92.343,64.868L92.343,94.148C92.343,107.189 81.779,117.766 68.737,117.781ZM18.015,96.12C15.25,91.34 14.251,85.741 15.194,80.3C15.38,80.415 15.709,80.612 15.939,80.743L41.035,95.233C42.307,95.978 43.882,95.978 45.154,95.233L75.771,77.528L75.771,89.766C75.783,89.894 75.727,90.018 75.623,90.094L50.26,104.732C38.968,111.234 24.544,107.369 18.015,96.093L18.015,96.12ZM11.442,41.339C14.195,36.552 18.545,32.887 23.729,30.985L23.729,60.808C23.722,62.282 24.509,63.645 25.789,64.375L56.412,82.058L45.773,88.199C45.668,88.27 45.534,88.282 45.417,88.232L20.059,73.589C8.777,67.062 4.911,52.632 11.42,41.339L11.442,41.339ZM98.544,61.608L67.921,43.925L78.51,37.8C78.616,37.73 78.75,37.718 78.866,37.767L104.225,52.41C112.154,56.992 116.718,65.745 115.937,74.869C115.156,83.993 109.169,91.842 100.576,95.008L100.576,65.191C100.593,63.714 99.809,62.343 98.527,61.608L98.544,61.608ZM109.1,45.722C108.914,45.607 108.585,45.409 108.355,45.278L83.26,30.788C81.988,30.043 80.412,30.043 79.14,30.788L48.517,48.466L48.517,36.233C48.513,36.106 48.57,35.984 48.671,35.905L74.029,21.267C81.961,16.695 91.821,17.12 99.33,22.359C106.839,27.597 110.642,36.704 109.089,45.727L109.1,45.722ZM42.738,67.546L32.133,61.427C32.022,61.366 31.947,61.257 31.93,61.132L31.93,31.851C31.923,22.689 37.218,14.351 45.513,10.461C53.808,6.571 63.605,7.832 70.644,13.696C70.458,13.801 70.123,13.981 69.888,14.118L44.798,28.602C43.518,29.332 42.731,30.695 42.738,32.169L42.738,67.546ZM48.496,55.128L62.136,47.25L75.771,55.128L75.771,70.872L62.131,78.749L48.49,70.872L48.496,55.128Z" style="fill-rule:nonzero;"/>
    </g>
</svg>
